<svg width="17" height="5" viewBox="0 0 17 5" fill="none" xmlns="http://www.w3.org/2000/svg">
<path d="M8.50024 1C9.3287 1 10.0003 1.67159 10.0003 2.50005C10.0003 3.3285 9.3287 4.0001 8.50024 4.0001C7.67179 4.0001 7.0002 3.3285 7.0002 2.50005C7.0002 1.67159 7.67179 1 8.50024 1Z" stroke="#2D264B" stroke-width="1.5"/>
<path d="M2.50005 1C3.3285 1 4.0001 1.67159 4.0001 2.50005C4.0001 3.3285 3.3285 4.0001 2.50005 4.0001C1.67159 4.0001 1 3.3285 1 2.50005C1 1.67159 1.67159 1 2.50005 1Z" stroke="#2D264B" stroke-width="1.5"/>
<path d="M14.5004 1C15.3289 1 16.0005 1.67159 16.0005 2.50005C16.0005 3.3285 15.3289 4.0001 14.5004 4.0001C13.672 4.0001 13.0004 3.3285 13.0004 2.50005C13.0004 1.67159 13.672 1 14.5004 1Z" stroke="#2D264B" stroke-width="1.5"/>
</svg>
